<?xml version="1.0" encoding="utf-8"?>
<!-- Generator: Adobe Illustrator 21.0.2, SVG Export Plug-In . SVG Version: 6.00 Build 0)  -->
<svg version="1.1" id="Layer_1" xmlns="http://www.w3.org/2000/svg" xmlns:xlink="http://www.w3.org/1999/xlink" x="0px" y="0px"
	 viewBox="0 0 70 70" style="enable-background:new 0 0 70 70;" xml:space="preserve">
<style type="text/css">
	.st0{fill:none;}
	.st1{fill:#3D556C;}
</style>
<g>
	<rect class="st0" width="70" height="70"/>
	<g>
		<path class="st1" d="M54,39h-3v-2h-6v2h-3v-2h-6v2h-3v-2h-6v2h-3v-2h-6v2h-2c-0.5,0-1,0.5-1,1s0.5,1,1,1h2v13c0,1.6,1.4,3,3,3
			c1.7,0,3-1.4,3-3V41h3v13c0,1.6,1.4,3,3,3c1.7,0,3-1.4,3-3V41h3v13c0,1.6,1.4,3,3,3c1.7,0,3-1.4,3-3V41h3v13c0,1.6,1.4,3,3,3
			c1.7,0,3-1.4,3-3V41h3c0.5,0,1-0.5,1-1S54.5,39,54,39z M22,54c0,0.5-0.5,1-1,1s-1-0.5-1-1V41h2V54z M31,54c0,0.5-0.5,1-1,1
			s-1-0.5-1-1V41h2V54z M40,54c0,0.5-0.5,1-1,1s-1-0.5-1-1V41h2V54z M49,54c0,0.5-0.5,1-1,1s-1-0.5-1-1V41h2V54z"/>
		<path class="st1" d="M16,17h2v13c0,1.6,1.4,3,3,3c1.7,0,3-1.4,3-3V17h3v13c0,1.6,1.4,3,3,3c1.7,0,3-1.4,3-3V17h3v13
			c0,1.6,1.4,3,3,3c1.7,0,3-1.4,3-3V17h3v13c0,1.6,1.4,3,3,3c1.7,0,3-1.4,3-3V17h3c0.5,0,1-0.5,1-1s-0.5-1-1-1h-3v-2h-6v2h-3v-2h-6
			v2h-3v-2h-6v2h-3v-2h-6v2h-2c-0.5,0-1,0.5-1,1S15.5,17,16,17z M49,30c0,0.5-0.5,1-1,1s-1-0.5-1-1V17h2V30z M40,30c0,0.5-0.5,1-1,1
			s-1-0.5-1-1V17h2V30z M31,30c0,0.5-0.5,1-1,1s-1-0.5-1-1V17h2V30z M22,30c0,0.5-0.5,1-1,1s-1-0.5-1-1V17h2V30z"/>
		<path class="st1" d="M55,6H15c-2.2,0-4,1.8-4,4v48c0,2.2,1.8,4,4,4h2v2h8v-2h20v2h8v-2h2c2.2,0,4-1.8,4-4V10C59,7.8,57.2,6,55,6z
			 M57,58c0,1.1-0.9,2-2,2h-2h-8H25h-8h-2c-1.1,0-2-0.9-2-2V10c0-1.1,0.9-2,2-2h40c1.1,0,2,0.9,2,2V58z"/>
	</g>
</g>
</svg>
