<?xml version="1.0" encoding="utf-8"?>
<!-- Generator: Adobe Illustrator 21.0.2, SVG Export Plug-In . SVG Version: 6.00 Build 0)  -->
<svg version="1.1" id="Layer_1" xmlns="http://www.w3.org/2000/svg" xmlns:xlink="http://www.w3.org/1999/xlink" x="0px" y="0px"
	 viewBox="0 0 70 70" style="enable-background:new 0 0 70 70;" xml:space="preserve">
<style type="text/css">
	.st0{fill:none;}
	.st1{fill:#3D556C;}
</style>
<g>
	<rect class="st0" width="70" height="70"/>
	<path class="st1" d="M47,58H17V14h30V58z M49,12H15v48h34V12L49,12z"/>
	<path class="st1" d="M53,30c-1.1,0-2,0.9-2,2s0.9,2,2,2s2-0.9,2-2S54.1,30,53,30L53,30z"/>
	<path class="st1" d="M53,23c-1.1,0-2,0.9-2,2s0.9,2,2,2s2-0.9,2-2S54.1,23,53,23L53,23z"/>
	<path class="st1" d="M53,17c0.6,0,1,0.4,1,1s-0.4,1-1,1s-1-0.4-1-1S52.4,17,53,17 M53,15c-1.7,0-3,1.3-3,3s1.3,3,3,3s3-1.3,3-3
		S54.7,15,53,15L53,15z"/>
	<path class="st1" d="M39,35c-0.2,0-0.3-0.1-0.4-0.2l-2-3c0-0.1-0.1-0.1-0.1-0.2L35,21.8l-1.5,9.8c0,0.2-0.2,0.4-0.5,0.4h-3
		c-0.2,0-0.4-0.1-0.4-0.3l-1.3-2.6l-0.8,5.4c0,0.2-0.2,0.4-0.4,0.4c-0.2,0-0.4,0-0.5-0.2l-2-3c0-0.1-0.1-0.1-0.1-0.2L23,21.8
		l-1.5,9.8c0,0.2-0.2,0.4-0.5,0.4h-2v-1h1.6l1.9-12.6c0-0.2,0.2-0.4,0.5-0.4s0.5,0.2,0.5,0.4l2,12.9l1.2,1.8l0.8-5.7
		c0-0.2,0.2-0.4,0.4-0.4c0.2,0,0.4,0.1,0.5,0.3l1.9,3.7h2.3l1.9-12.6c0-0.2,0.2-0.4,0.5-0.4s0.5,0.2,0.5,0.4l2,12.9l1.2,1.8l0.8-5.7
		c0-0.2,0.2-0.4,0.4-0.4c0.2,0,0.4,0.1,0.5,0.3l1.9,3.7H45v1h-3c-0.2,0-0.4-0.1-0.4-0.3l-1.3-2.6l-0.8,5.4c0,0.2-0.2,0.4-0.4,0.4
		C39.1,35,39,35,39,35z"/>
	<rect x="19" y="38" class="st1" width="26" height="2"/>
	<g>
		<circle class="st1" cx="39.5" cy="51.5" r="0.5"/>
		<path class="st1" d="M42,44.5c0-0.3-0.2-0.5-0.5-0.5S41,44.2,41,44.5v2c0,0.3,0.2,0.5,0.5,0.5s0.5-0.2,0.5-0.5V44.5z"/>
		<path class="st1" d="M44.5,48c-0.3,0-0.5,0.2-0.5,0.5v2c0,0.3,0.2,0.5,0.5,0.5s0.5-0.2,0.5-0.5v-2C45,48.2,44.8,48,44.5,48z"/>
		<path class="st1" d="M42.5,44h1c0.3,0,0.5-0.2,0.5-0.5c0-0.3-0.2-0.5-0.5-0.5h-1c-0.3,0-0.5,0.2-0.5,0.5C42,43.8,42.2,44,42.5,44z
			"/>
		<path class="st1" d="M43.5,47h-1c-0.3,0-0.5,0.2-0.5,0.5c0,0.3,0.2,0.5,0.5,0.5h1c0.3,0,0.5-0.2,0.5-0.5C44,47.2,43.8,47,43.5,47z
			"/>
		<path class="st1" d="M43.5,51h-1c-0.3,0-0.5,0.2-0.5,0.5c0,0.3,0.2,0.5,0.5,0.5h1c0.3,0,0.5-0.2,0.5-0.5C44,51.2,43.8,51,43.5,51z
			"/>
		<path class="st1" d="M35,44.5c0-0.3-0.2-0.5-0.5-0.5S34,44.2,34,44.5v2c0,0.3,0.2,0.5,0.5,0.5s0.5-0.2,0.5-0.5V44.5z"/>
		<path class="st1" d="M37.5,44c-0.3,0-0.5,0.2-0.5,0.5v2c0,0.3,0.2,0.5,0.5,0.5s0.5-0.2,0.5-0.5v-2C38,44.2,37.8,44,37.5,44z"/>
		<path class="st1" d="M37.5,48c-0.3,0-0.5,0.2-0.5,0.5v2c0,0.3,0.2,0.5,0.5,0.5s0.5-0.2,0.5-0.5v-2C38,48.2,37.8,48,37.5,48z"/>
		<path class="st1" d="M35.5,44h1c0.3,0,0.5-0.2,0.5-0.5c0-0.3-0.2-0.5-0.5-0.5h-1c-0.3,0-0.5,0.2-0.5,0.5C35,43.8,35.2,44,35.5,44z
			"/>
		<path class="st1" d="M36.5,51h-1c-0.3,0-0.5,0.2-0.5,0.5c0,0.3,0.2,0.5,0.5,0.5h1c0.3,0,0.5-0.2,0.5-0.5C37,51.2,36.8,51,36.5,51z
			"/>
		<path class="st1" d="M32.5,44c-0.3,0-0.5,0.2-0.5,0.5v2c0,0.3,0.2,0.5,0.5,0.5s0.5-0.2,0.5-0.5v-2C33,44.2,32.8,44,32.5,44z"/>
		<path class="st1" d="M32.5,48c-0.3,0-0.5,0.2-0.5,0.5v2c0,0.3,0.2,0.5,0.5,0.5s0.5-0.2,0.5-0.5v-2C33,48.2,32.8,48,32.5,48z"/>
		<path class="st1" d="M31.5,43h-1c-0.3,0-0.5,0.2-0.5,0.5c0,0.3,0.2,0.5,0.5,0.5h1c0.3,0,0.5-0.2,0.5-0.5C32,43.2,31.8,43,31.5,43z
			"/>
		<path class="st1" d="M36.5,47h-1c-0.3,0-0.5,0.2-0.5,0.5c0,0.3,0.2,0.5,0.5,0.5h1c0.3,0,0.5-0.2,0.5-0.5C37,47.2,36.8,47,36.5,47z
			"/>
	</g>
	<rect x="51" y="46" class="st1" width="4" height="2"/>
	<rect x="51" y="49" class="st1" width="4" height="2"/>
	<rect x="51" y="52" class="st1" width="4" height="2"/>
	<path class="st1" d="M55,10c1.1,0,2,0.9,2,2v48c0,1.1-0.9,2-2,2H15c-1.1,0-2-0.9-2-2V12c0-1.1,0.9-2,2-2h6H55 M15,8
		c-2.2,0-4,1.8-4,4v48c0,2.2,1.8,4,4,4h40c2.2,0,4-1.8,4-4V12c0-2.2-1.8-4-4-4H15z"/>
	<path class="st1" d="M27.9,46.6C27.5,48.7,24,51,24,51s-3.5-2.3-3.9-4.4c0-0.1-0.1-0.3-0.1-0.5c0-1.2,0.9-2.1,2-2.1
		c0.8,0,1.7,0.5,2,1.3c0,0,0,0,0,0c0.3-0.8,1.1-1.3,2-1.3c1.1,0,2,0.9,2,2.1C28,46.3,28,46.4,27.9,46.6z"/>
</g>
</svg>
