<?xml version="1.0" encoding="utf-8"?>
<!-- Generator: Adobe Illustrator 21.0.2, SVG Export Plug-In . SVG Version: 6.00 Build 0)  -->
<svg version="1.1" id="Layer_1" xmlns="http://www.w3.org/2000/svg" xmlns:xlink="http://www.w3.org/1999/xlink" x="0px" y="0px"
	 viewBox="0 0 70 70" style="enable-background:new 0 0 70 70;" xml:space="preserve">
<style type="text/css">
	.st0{opacity:0.5;fill:none;}
	.st1{fill:#3D556C;}
</style>
<g>
	<rect class="st0" width="70" height="70"/>
	<g>
		<path class="st1" d="M56,14h-7.8c0.5,0.3,0.8,0.6,0.8,1s-0.3,0.7-0.8,1H55c0.5,0,1,0.5,1,1v44c0,0.5-0.5,1-1,1H15
			c-0.6,0-1-0.5-1-1V17c0-0.6,0.4-1,1-1h6.8c-0.5-0.3-0.8-0.6-0.8-1s0.3-0.7,0.8-1H14c-1.1,0-2,0.9-2,2v46c0,1.1,0.9,2,2,2h42
			c1.1,0,2-0.9,2-2V16C58,14.9,57.1,14,56,14z"/>
		<path class="st1" d="M42,9h-2c0-2.8-2.2-5-5-5s-5,2.2-5,5h-2c-1.1,0-2,0.9-2,2v4c0,0.6,0.4,1,1,1h1.6c0.3,0,0.6-0.2,0.8-0.4
			c0.9-1.3,3-1.6,5.6-1.6c2.5,0,4.7,0.2,5.6,1.6c0.2,0.3,0.5,0.4,0.8,0.4H43c0.6,0,1-0.4,1-1v-4C44,9.9,43.1,9,42,9z M32,9
			c0-1.7,1.3-3,3-3c1.7,0,3,1.3,3,3c0,1.7-1.3,3-3,3C33.3,12,32,10.7,32,9z"/>
		<path class="st1" d="M54.5,17h-7.4c-2.4,1.2-6.9,2-12.1,2s-9.7-0.8-12.1-2h-7.4c-0.3,0-0.5,0.2-0.5,0.5v43c0,0.3,0.2,0.5,0.5,0.5
			h39c0.3,0,0.5-0.2,0.5-0.5v-43C55,17.2,54.8,17,54.5,17z M24.5,53c-0.3,0-0.5-0.2-0.5-0.5v-2c0-0.3,0.2-0.5,0.5-0.5
			s0.5,0.2,0.5,0.5v2C25,52.8,24.8,53,24.5,53z M24,48.5v-2c0-0.3,0.2-0.5,0.5-0.5s0.5,0.2,0.5,0.5v2c0,0.3-0.2,0.5-0.5,0.5
			S24,48.8,24,48.5z M26.5,54h-1c-0.3,0-0.5-0.2-0.5-0.5c0-0.3,0.2-0.5,0.5-0.5h1c0.3,0,0.5,0.2,0.5,0.5C27,53.8,26.8,54,26.5,54z
			 M25,45.5c0-0.3,0.2-0.5,0.5-0.5h1c0.3,0,0.5,0.2,0.5,0.5c0,0.3-0.2,0.5-0.5,0.5h-1C25.2,46,25,45.8,25,45.5z M28,52.5
			c0,0.3-0.2,0.5-0.5,0.5S27,52.8,27,52.5v-2c0-0.3,0.2-0.5,0.5-0.5s0.5,0.2,0.5,0.5V52.5z M28,48.5c0,0.3-0.2,0.5-0.5,0.5
			S27,48.8,27,48.5v-2c0-0.3,0.2-0.5,0.5-0.5s0.5,0.2,0.5,0.5V48.5z M29.5,53c-0.3,0-0.5-0.2-0.5-0.5v-2c0-0.3,0.2-0.5,0.5-0.5
			s0.5,0.2,0.5,0.5v2C30,52.8,29.8,53,29.5,53z M29,48.5v-2c0-0.3,0.2-0.5,0.5-0.5s0.5,0.2,0.5,0.5v2c0,0.3-0.2,0.5-0.5,0.5
			S29,48.8,29,48.5z M31.5,54h-1c-0.3,0-0.5-0.2-0.5-0.5c0-0.3,0.2-0.5,0.5-0.5h1c0.3,0,0.5,0.2,0.5,0.5C32,53.8,31.8,54,31.5,54z
			 M30,45.5c0-0.3,0.2-0.5,0.5-0.5h1c0.3,0,0.5,0.2,0.5,0.5c0,0.3-0.2,0.5-0.5,0.5h-1C30.2,46,30,45.8,30,45.5z M33,52.5
			c0,0.3-0.2,0.5-0.5,0.5S32,52.8,32,52.5v-2c0-0.3,0.2-0.5,0.5-0.5s0.5,0.2,0.5,0.5V52.5z M33,48.5c0,0.3-0.2,0.5-0.5,0.5
			S32,48.8,32,48.5v-2c0-0.3,0.2-0.5,0.5-0.5s0.5,0.2,0.5,0.5V48.5z M34.5,51c-0.3,0-0.5-0.2-0.5-0.5c0-0.3,0.2-0.5,0.5-0.5
			s0.5,0.2,0.5,0.5C35,50.8,34.8,51,34.5,51z M34.5,49c-0.3,0-0.5-0.2-0.5-0.5c0-0.3,0.2-0.5,0.5-0.5s0.5,0.2,0.5,0.5
			C35,48.8,34.8,49,34.5,49z M36.5,53c-0.3,0-0.5-0.2-0.5-0.5v-2c0-0.3,0.2-0.5,0.5-0.5s0.5,0.2,0.5,0.5v2C37,52.8,36.8,53,36.5,53z
			 M36,48.5v-2c0-0.3,0.2-0.5,0.5-0.5s0.5,0.2,0.5,0.5v2c0,0.3-0.2,0.5-0.5,0.5S36,48.8,36,48.5z M38.5,54h-1
			c-0.3,0-0.5-0.2-0.5-0.5c0-0.3,0.2-0.5,0.5-0.5h1c0.3,0,0.5,0.2,0.5,0.5C39,53.8,38.8,54,38.5,54z M37,45.5c0-0.3,0.2-0.5,0.5-0.5
			h1c0.3,0,0.5,0.2,0.5,0.5c0,0.3-0.2,0.5-0.5,0.5h-1C37.2,46,37,45.8,37,45.5z M40,52.5c0,0.3-0.2,0.5-0.5,0.5S39,52.8,39,52.5v-2
			c0-0.3,0.2-0.5,0.5-0.5s0.5,0.2,0.5,0.5V52.5z M40,48.5c0,0.3-0.2,0.5-0.5,0.5S39,48.8,39,48.5v-2c0-0.3,0.2-0.5,0.5-0.5
			s0.5,0.2,0.5,0.5V48.5z M41.5,49c-0.3,0-0.5-0.2-0.5-0.5v-2c0-0.3,0.2-0.5,0.5-0.5s0.5,0.2,0.5,0.5v2C42,48.8,41.8,49,41.5,49z
			 M42.5,49h1c0.3,0,0.5,0.2,0.5,0.5c0,0.3-0.2,0.5-0.5,0.5h-1c-0.3,0-0.5-0.2-0.5-0.5C42,49.2,42.2,49,42.5,49z M42,45.5
			c0-0.3,0.2-0.5,0.5-0.5h1c0.3,0,0.5,0.2,0.5,0.5c0,0.3-0.2,0.5-0.5,0.5h-1C42.2,46,42,45.8,42,45.5z M43.5,54h-1
			c-0.3,0-0.5-0.2-0.5-0.5c0-0.3,0.2-0.5,0.5-0.5h1c0.3,0,0.5,0.2,0.5,0.5C44,53.8,43.8,54,43.5,54z M45,52.5c0,0.3-0.2,0.5-0.5,0.5
			S44,52.8,44,52.5v-2c0-0.3,0.2-0.5,0.5-0.5s0.5,0.2,0.5,0.5V52.5z M51,34c-0.2,0-0.4,0-0.6-0.1c-1.5,1.2-4,2.8-7.2,2.9
			c-0.1,0-0.2,0-0.3,0c-3,0-5.9-1.4-8.6-4.1c-1.6-1.6-3.3-2.7-5-3.2C28.9,29.8,28.5,30,28,30c-0.6,0-1.2-0.3-1.5-0.7
			c-2.4,0.2-4.3,1.4-5.5,2.3c0,0.1,0,0.3,0,0.4c0,1.1-0.9,2-2,2s-2-0.9-2-2c0-1.1,0.9-2,2-2c0.2,0,0.4,0,0.6,0.1
			c1.4-1.1,3.7-2.6,6.6-2.8c0.3-0.7,1-1.3,1.9-1.3c1,0,1.8,0.7,2,1.7c2,0.6,3.9,1.8,5.7,3.6c2.4,2.4,4.9,3.5,7.5,3.5
			c2.5-0.1,4.7-1.4,5.9-2.3c0-0.1,0-0.3,0-0.4c0-1.1,0.9-2,2-2s2,0.9,2,2C53,33.1,52.1,34,51,34z"/>
	</g>
</g>
</svg>
